<svg xmlns="http://www.w3.org/2000/svg" version="1.1" xmlns:xlink="http://www.w3.org/1999/xlink" width="512" height="512"><svg xmlns="http://www.w3.org/2000/svg" version="1.1" xmlns:xlink="http://www.w3.org/1999/xlink" width="512" height="512"><svg xmlns="http://www.w3.org/2000/svg" viewBox="0 0 512 512">
  <defs>
    <!-- Background Gradient: Deep Space -->
    <radialGradient id="spaceGrad" cx="50%" cy="50%" r="70%" fx="50%" fy="50%">
      <stop offset="0%" stop-color="#1a1a2e"></stop>
      <stop offset="100%" stop-color="#050505"></stop>
    </radialGradient>
    
    <!-- Neon Glow Filter -->
    <filter id="neonGlow" x="-50%" y="-50%" width="200%" height="200%">
      <feGaussianBlur in="SourceGraphic" stdDeviation="4" result="blur"></feGaussianBlur>
      <feColorMatrix in="blur" type="matrix" values="
        0 0 0 0 0
        0 1 0 0 0
        0 0 0 0 0
        0 0 0 1 0" result="greenBlur"></feColorMatrix>
      <feMerge>
        <feMergeNode in="greenBlur"></feMergeNode>
        <feMergeNode in="SourceGraphic"></feMergeNode>
      </feMerge>
    </filter>

    <!-- CRT Scanline Pattern -->
    <pattern id="scanlines" patternUnits="userSpaceOnUse" width="512" height="4">
      <rect width="512" height="2" fill="#000000" opacity="0.2"></rect>
    </pattern>
  </defs>

  <!-- Icon Container -->
  <rect x="0" y="0" width="512" height="512" rx="100" ry="100" fill="url(#spaceGrad)"></rect>
  
  <!-- Faint Grid for Vector Display Feel -->
  <g stroke="#33ff33" stroke-width="1" opacity="0.1">
    <line x1="0" y1="128" x2="512" y2="128"></line>
    <line x1="0" y1="256" x2="512" y2="256"></line>
    <line x1="0" y1="384" x2="512" y2="384"></line>
    <line x1="128" y1="0" x2="128" y2="512"></line>
    <line x1="256" y1="0" x2="256" y2="512"></line>
    <line x1="384" y1="0" x2="384" y2="512"></line>
  </g>

  <!-- Game Elements Group with Neon Glow -->
  <g filter="url(#neonGlow)" stroke="#39ff14" stroke-width="6" fill="none" stroke-linecap="round" stroke-linejoin="round">
    
    <!-- The Player Ship -->
    <path d="M 256 220 L 290 320 L 256 300 L 222 320 Z" fill="rgba(57, 255, 20, 0.1)"></path>
    
    <!-- Thrust Flame (Optional, adds dynamic feel) -->
    <path d="M 246 325 L 256 350 L 266 325" stroke-width="4" opacity="0.8"></path>

    <!-- Large Asteroid (Top Left) -->
    <path d="M 120 100 L 160 80 L 200 110 L 190 160 L 150 190 L 100 170 L 80 130 Z"></path>

    <!-- Medium Asteroid (Right) -->
    <path d="M 380 150 L 420 130 L 450 160 L 430 200 L 390 210 L 360 180 Z"></path>

    <!-- Small Asteroid / Debris (Bottom Left) -->
    <path d="M 100 350 L 120 340 L 135 360 L 120 380 L 90 370 Z" stroke-width="4"></path>

    <!-- Projectiles -->
    <circle cx="256" cy="180" r="4" fill="#39ff14" stroke="none"></circle>
    <circle cx="256" cy="140" r="4" fill="#39ff14" stroke="none" opacity="0.6"></circle>
    <circle cx="256" cy="100" r="4" fill="#39ff14" stroke="none" opacity="0.3"></circle>

  </g>

  <!-- Scanline Overlay -->
  <rect width="512" height="512" rx="100" ry="100" fill="url(#scanlines)" pointer-events="none"></rect>
  
  <!-- Glossy Reflection (Top) -->
  <path d="M 100 0 A 100 100 0 0 0 0 100 L 0 200 Q 256 300 512 200 L 512 100 A 100 100 0 0 0 412 0 Z" fill="#ffffff" opacity="0.05"></path>

</svg></svg><style>@media (prefers-color-scheme: light) { :root { filter: none; } }
@media (prefers-color-scheme: dark) { :root { filter: none; } }
</style></svg>